<?xml version="1.0" encoding="UTF-8" standalone="no"?>
<!-- Created with Inkscape (http://www.inkscape.org/) -->

<svg
   width="210mm"
   height="297mm"
   viewBox="0 0 210 297"
   version="1.1"
   id="svg1"
   inkscape:version="1.3 (0e150ed6c4, 2023-07-21)"
   sodipodi:docname="about_us.svg"
   xmlns:inkscape="http://www.inkscape.org/namespaces/inkscape"
   xmlns:sodipodi="http://sodipodi.sourceforge.net/DTD/sodipodi-0.dtd"
   xmlns="http://www.w3.org/2000/svg"
   xmlns:svg="http://www.w3.org/2000/svg">
  <sodipodi:namedview
     id="namedview1"
     pagecolor="#ffffff"
     bordercolor="#000000"
     borderopacity="0.25"
     inkscape:showpageshadow="2"
     inkscape:pageopacity="0.0"
     inkscape:pagecheckerboard="0"
     inkscape:deskcolor="#d1d1d1"
     inkscape:document-units="mm"
     inkscape:zoom="0.53362093"
     inkscape:cx="396.34877"
     inkscape:cy="660.58128"
     inkscape:window-width="1440"
     inkscape:window-height="837"
     inkscape:window-x="-8"
     inkscape:window-y="-8"
     inkscape:window-maximized="1"
     inkscape:current-layer="layer1" />
  <defs
     id="defs1" />
  <g
     inkscape:label="图层 1"
     inkscape:groupmode="layer"
     id="layer1">
    <path
       style="fill:#1a1a1a;stroke:#000000;stroke-width:0.333145"
       d="m 15.887588,106.95051 c 1.678577,-1.3932 3.192208,-3.15952 5.03573,-4.1796 1.571322,-0.86944 3.362967,-0.89734 5.03573,-1.39319 2.244248,-0.66525 4.496089,-1.30076 6.71431,-2.089792 6.392569,-2.273897 3.781845,-2.264849 10.630983,-3.482987 3.040419,-0.540755 6.439043,0 9.51194,0 3.657792,0 7.575668,-0.37503 11.19051,0 2.707562,0.2809 5.696919,4.095097 7.83336,5.572779 0.67222,0.46495 1.585997,0.18919 2.238103,0.6966 0.894682,0.69616 1.414244,1.96585 2.238102,2.78639 3.758194,3.7431 8.123913,6.49883 11.750043,10.44897 5.26279,5.73307 9.64607,12.74751 13.988141,19.50473 2.4723,3.84748 5.37953,7.32689 7.83336,11.14559 2.77229,4.31432 1.60197,3.54577 3.91667,7.66257 5.99887,10.66924 11.23379,22.47897 18.46435,32.0435 4.17481,5.52239 10.97427,12.77155 16.78576,15.32515 1.62151,0.7125 3.39226,0.76362 5.03574,1.39319 0.79721,0.3054 1.41536,1.22248 2.23811,1.39322 1.47176,0.30537 2.98792,-0.13235 4.47621,0 9.97967,0.88746 -2.46491,0.69658 6.15478,0.69658 4.92167,0 10.37062,-0.77763 15.10719,0.6966 0.84435,0.26281 2.23809,-0.70407 2.23809,0.69659"
       id="path2" />
    <path
       style="fill:#1a1a1a;stroke:#000000;stroke-width:0.315541"
       d="m 16.456787,218.63221 c 41.676498,-4.48488 35.952203,-0.53845 79.902072,-23.1146 6.524301,-3.3514 20.630761,-18.26109 25.292741,-23.72287 1.56775,-1.8367 2.63641,-4.09028 4.02384,-6.0828 2.70414,-3.88339 5.32309,-7.71312 8.0477,-11.5573 0.18629,-0.26283 4.857,-8.31494 5.17351,-8.5159 9.59285,-6.09058 21.3633,-6.95284 32.19077,-7.90762 12.76341,-1.12551 -1.28538,0.10746 11.4967,-1.82484 2.01352,-0.30438 4.27026,0 6.32319,0"
       id="path3" />
  </g>
</svg>
